<svg xmlns="http://www.w3.org/2000/svg" width="106" height="164" viewBox="0 0 106 164" fill="none">
  <g clip-path="url(#clip0_1_2)">
    <path fill-rule="evenodd" clip-rule="evenodd" d="M69.7123 93.6144V105.409L75.841 101.904L87.4128 95.2867V83.4931V31.6963V19.9027L75.841 13.2854L62.9078 5.8896L52.6061 -0.000961304L49.248 1.90656L42.2822 5.88864L29.0438 13.4582L17.472 20.0755V31.8691V83.3165V95.1101L29.0438 101.727L35.0275 105.149V93.3542L29.0438 89.9328V25.2518L46.6406 15.1901V99.9946L52.5955 103.4L58.2134 100.188V14.9971L75.8419 25.0771V90.1075L69.7133 93.6115L69.7123 93.6144ZM0.15168 36.3379L0.13056 63.4435L0.1248 70.6637L0.1152 83.4595L0.10944 90.1459L0.0998401 102.918L11.568 110.024L17.472 113.681L26.3654 119.192L26.6227 119.351L29.0438 120.852L36.9437 125.747L42.3379 129.088L46.6406 131.754L52.631 135.467L58.2125 132.024L61.4918 130.002L62.9078 129.123L68.2963 125.778L75.841 121.095L87.4128 113.914L93.7133 110.003L105.224 102.858L105.234 90.0499L105.24 83.3578L105.25 70.5504L105.255 63.5578L105.276 36.4838L105.286 23.688V12.0442L105.19 11.9846L95.8099 17.807L93.7133 19.1088V29.3078V77.7101V90.5117V97.201L87.4128 101.111L75.841 108.294L68.2973 112.976L58.2134 119.235V119.519L57.985 119.377L52.5965 122.722L47.208 119.377L46.6426 119.728V119.026L36.8957 112.976L29.0467 108.104L17.4749 100.921L11.5709 97.2566V90.5674V77.7658V29.2512V19.1645L9.38304 17.807L0.0028801 11.9846L0.1632 23.5286L0.1536 36.337L0.15168 36.3379Z" fill="#0062FF"/>
    <path d="M10.079 140.217H8.57184C8.19456 140.217 7.81824 140.547 7.81824 140.97V155.619C7.81824 155.901 7.7712 156.136 7.72416 156.372L5.41632 160.423L3.15552 156.372C3.06144 156.136 3.0144 155.901 3.0144 155.619V140.97C3.0144 140.547 2.68416 140.217 2.2608 140.217H0.7536C0.32928 140.217 0 140.547 0 140.97V155.619C0 156.702 0.32928 157.738 0.89472 158.633L3.43776 163.108C3.57888 163.343 3.81504 163.485 4.09728 163.485H6.7344C7.01664 163.485 7.2528 163.344 7.39392 163.108L9.93792 158.633C10.5034 157.739 10.8326 156.703 10.8326 155.619V140.97C10.8326 140.547 10.5034 140.217 10.079 140.217ZM21.9014 143.199C22.3258 143.199 22.655 142.869 22.655 142.446V140.946C22.655 140.522 22.3258 140.193 21.9014 140.193H16.297C15.4493 140.193 14.7898 140.852 14.7898 141.692V161.977C14.7898 162.778 15.4493 163.484 16.297 163.484H21.9014C22.3258 163.484 22.655 163.155 22.655 162.731V161.223C22.655 160.8 22.3258 160.47 21.9014 160.47H17.8042V153.311H21.9014C22.3258 153.311 22.655 152.982 22.655 152.557V151.05C22.655 150.626 22.3258 150.297 21.9014 150.297H17.8042V143.2H21.9014V143.199ZM32.0285 140.17C29.0141 140.17 26.5651 142.619 26.5651 145.586V162.731C26.5651 163.108 26.8944 163.484 27.3187 163.484H28.8259C29.2493 163.484 29.5795 163.107 29.5795 162.731V145.586C29.5795 144.267 30.6624 143.184 32.0285 143.184C33.3475 143.184 34.4304 144.267 34.4304 145.586V162.731C34.4304 163.108 34.7606 163.484 35.184 163.484H36.6912C37.1155 163.484 37.4448 163.107 37.4448 162.731V145.586C37.4448 142.619 34.9958 140.17 32.0285 140.17ZM47.4768 140.209H40.223C39.7987 140.209 39.4694 140.539 39.4694 140.955V142.462C39.4694 142.886 39.7987 143.216 40.223 143.216H42.3427V162.731C42.3427 163.108 42.672 163.484 43.0963 163.484H44.6035C45.0278 163.484 45.3571 163.107 45.3571 162.731V143.216H47.4768C47.9011 143.216 48.2304 142.886 48.2304 142.462V140.955C48.2304 140.539 47.9011 140.209 47.4768 140.209ZM63.5376 140.17C62.0304 140.17 60.6173 140.829 59.6285 141.865C58.6397 140.828 57.2266 140.17 55.7194 140.17C52.705 140.17 50.256 142.619 50.256 145.586V162.731C50.256 163.108 50.6333 163.484 51.0096 163.484H52.5168C52.9402 163.484 53.2704 163.107 53.2704 162.731V145.586C53.2704 144.267 54.3533 143.184 55.7194 143.184C57.0384 143.184 58.1213 144.267 58.1213 145.586V162.731C58.1213 163.108 58.4515 163.484 58.8749 163.484H60.3821C60.8064 163.484 61.1357 163.107 61.1357 162.731V145.586C61.1357 144.267 62.2186 143.184 63.5376 143.184C64.9027 143.184 65.9866 144.267 65.9866 145.586V162.731C65.9866 163.108 66.3158 163.484 66.7402 163.484H68.2474C68.6717 163.484 69.001 163.107 69.001 162.731V145.586C69.001 142.619 66.552 140.17 63.5376 140.17ZM80.7763 158.02C80.7763 159.386 79.6934 160.469 78.3744 160.469C77.0083 160.469 75.9254 159.386 75.9254 158.02V145.586C75.9254 144.267 77.0083 143.184 78.3744 143.184C79.6934 143.184 80.7763 144.267 80.7763 145.586V158.02ZM78.3744 140.17C75.36 140.17 72.911 142.619 72.911 145.586V158.02C72.911 161.034 75.36 163.483 78.3744 163.483C81.3418 163.483 83.7907 161.034 83.7907 158.02V145.586C83.7907 142.619 81.3418 140.17 78.3744 140.17ZM90.7142 140.923C90.7142 140.5 90.337 140.17 89.9606 140.17H88.4534C88.0291 140.17 87.6998 140.499 87.6998 140.923V162.731C87.6998 163.155 88.0291 163.484 88.4534 163.484H89.9606C90.384 163.484 90.7142 163.155 90.7142 162.731V140.923ZM105.221 145.595C105.221 142.635 102.819 140.194 99.8045 140.194H95.8954C95.0477 140.194 94.3882 140.853 94.3882 141.701V162.731C94.3882 163.108 94.7174 163.484 95.1418 163.484H96.649C97.0262 163.484 97.4026 163.107 97.4026 162.731V153.31H99.8045C101.124 153.31 102.206 154.394 102.206 155.712V162.73C102.206 163.107 102.536 163.483 102.96 163.483H104.467C104.892 163.483 105.221 163.106 105.221 162.73V155.712C105.221 154.158 104.608 152.792 103.572 151.803C104.608 150.814 105.221 149.401 105.221 147.847V145.595ZM102.206 147.847C102.206 149.213 101.123 150.297 99.8045 150.297H97.4026V143.2H99.8045C101.124 143.2 102.206 144.283 102.206 145.595V147.847Z" fill="#0062FF"/>
  </g>
  <defs>
    <clipPath id="clip0_1_2">
      <rect width="105.285" height="163.484" fill="white"/>
    </clipPath>
  </defs>
</svg>